<svg xmlns="http://www.w3.org/2000/svg" width="400" height="823" viewBox="0 0 400 823" fill="none" role="img" aria-labelledby="title desc">
<title id="title">TSLink: distinct services, distinct nodes, one tailnet</title>
<desc id="desc">Illustrative TSLink service map. Four local services have distinct icons, colors, and named embedded Tailscale nodes within the same tailnet: App becomes app over HTTPS; Docs becomes docs over HTTPS; Database becomes database over private TCP; Model API becomes model over HTTPS. Phone, laptop, and agent clients connect as permitted by tailnet policy. Node names and localhost ports are examples. Separate nodes do not imply isolated host processes.</desc>
<g font-family="-apple-system, BlinkMacSystemFont, Segoe UI, Arial, sans-serif">
<rect x="0.5" y="0.5" width="399" height="822" rx="24" fill="#0B1423" stroke="#2C3E57" stroke-width="1"/>
<text x="24" y="54" fill="#EDF4FF" font-size="32" font-weight="700" text-anchor="start">Your tools.</text>
<text x="24" y="96" fill="#EDF4FF" font-size="32" font-weight="700" text-anchor="start">Their own addresses.</text>
<text x="24" y="137" fill="#A6B7CE" font-size="20" font-weight="400" text-anchor="start">One service. One named node.</text>
<rect x="222" y="174" width="162" height="547" rx="19" fill="#101C2E" stroke="#2C3E57" stroke-width="1"/>
<text x="24" y="202" fill="#A6B7CE" font-size="16" font-weight="650" text-anchor="start" letter-spacing="1.2">LOCAL</text>
<text x="303" y="202" fill="#EDF4FF" font-size="15" font-weight="650" text-anchor="middle" letter-spacing="1">ONE TAILNET</text>
<rect x="20" y="220" width="152" height="107" rx="15" fill="#143647" stroke="#295967" stroke-width="1"/>
<g transform="translate(79 235) scale(0.85)" stroke="#65D5E9" stroke-width="2.1" stroke-linecap="round" stroke-linejoin="round"><rect x="3" y="5" width="34" height="30" rx="5"/><path d="M3 14h34M9 9.5h1m5 0h1"/><rect x="9" y="20" width="8" height="9" rx="1.5"/><path d="M23 21h8m-8 6h8"/></g>
<text x="96" y="302" fill="#65D5E9" font-size="22" font-weight="650" text-anchor="middle">App</text>
<path d="M181 274h33m-6-6 6 6-6 6" stroke="#65D5E9" stroke-width="2.1" stroke-linecap="round" stroke-linejoin="round"/>
<rect x="232" y="220" width="142" height="107" rx="15" fill="#152236" stroke="#295967" stroke-width="1"/>
<g transform="translate(290 230) scale(0.675)" stroke="#65D5E9" stroke-width="2.1" stroke-linecap="round" stroke-linejoin="round"><rect x="3" y="5" width="34" height="30" rx="5"/><path d="M3 14h34M9 9.5h1m5 0h1"/><rect x="9" y="20" width="8" height="9" rx="1.5"/><path d="M23 21h8m-8 6h8"/></g>
<text x="303" y="285" fill="#65D5E9" font-size="24" font-weight="650" text-anchor="middle">app</text>
<text x="303" y="312" fill="#A6B7CE" font-size="18" font-weight="500" text-anchor="middle">HTTPS</text>
<rect x="20" y="345" width="152" height="107" rx="15" fill="#3B2F1E" stroke="#6B552D" stroke-width="1"/>
<g transform="translate(79 360) scale(0.85)" stroke="#F2C064" stroke-width="2.1" stroke-linecap="round" stroke-linejoin="round"><path d="M10 4h14l9 9v23H10Z"/><path d="M24 4v9h9M16 20h11m-11 6h11M5 9v26a5 5 0 0 0 5 5"/></g>
<text x="96" y="427" fill="#F2C064" font-size="22" font-weight="650" text-anchor="middle">Docs</text>
<path d="M181 399h33m-6-6 6 6-6 6" stroke="#F2C064" stroke-width="2.1" stroke-linecap="round" stroke-linejoin="round"/>
<rect x="232" y="345" width="142" height="107" rx="15" fill="#152236" stroke="#6B552D" stroke-width="1"/>
<g transform="translate(290 355) scale(0.675)" stroke="#F2C064" stroke-width="2.1" stroke-linecap="round" stroke-linejoin="round"><path d="M10 4h14l9 9v23H10Z"/><path d="M24 4v9h9M16 20h11m-11 6h11M5 9v26a5 5 0 0 0 5 5"/></g>
<text x="303" y="410" fill="#F2C064" font-size="24" font-weight="650" text-anchor="middle">docs</text>
<text x="303" y="437" fill="#A6B7CE" font-size="18" font-weight="500" text-anchor="middle">HTTPS</text>
<rect x="20" y="470" width="152" height="107" rx="15" fill="#2C2347" stroke="#554276" stroke-width="1"/>
<g transform="translate(79 485) scale(0.85)" stroke="#C1A2FF" stroke-width="2.1" stroke-linecap="round" stroke-linejoin="round"><ellipse cx="20" cy="8" rx="15" ry="6"/><path d="M5 8v23c0 3.3 6.7 6 15 6s15-2.7 15-6V8M5 19c0 3.3 6.7 6 15 6s15-2.7 15-6M5 30c0 3.3 6.7 6 15 6s15-2.7 15-6"/></g>
<text x="96" y="552" fill="#C1A2FF" font-size="22" font-weight="650" text-anchor="middle">Database</text>
<path d="M181 524h33m-6-6 6 6-6 6" stroke="#C1A2FF" stroke-width="2.1" stroke-linecap="round" stroke-linejoin="round"/>
<rect x="232" y="470" width="142" height="107" rx="15" fill="#152236" stroke="#554276" stroke-width="1"/>
<g transform="translate(290 480) scale(0.675)" stroke="#C1A2FF" stroke-width="2.1" stroke-linecap="round" stroke-linejoin="round"><ellipse cx="20" cy="8" rx="15" ry="6"/><path d="M5 8v23c0 3.3 6.7 6 15 6s15-2.7 15-6V8M5 19c0 3.3 6.7 6 15 6s15-2.7 15-6M5 30c0 3.3 6.7 6 15 6s15-2.7 15-6"/></g>
<text x="303" y="535" fill="#C1A2FF" font-size="24" font-weight="650" text-anchor="middle">database</text>
<text x="303" y="562" fill="#A6B7CE" font-size="18" font-weight="500" text-anchor="middle">Private TCP</text>
<rect x="20" y="595" width="152" height="107" rx="15" fill="#173A30" stroke="#2D614D" stroke-width="1"/>
<g transform="translate(79 610) scale(0.85)" stroke="#72D5A4" stroke-width="2.1" stroke-linecap="round" stroke-linejoin="round"><rect x="8" y="8" width="24" height="24" rx="6"/><path d="M14 2v6m12-6v6M14 32v6m12-6v6M2 14h6m-6 12h6m24-12h6m-6 12h6"/><circle cx="15" cy="17" r="2"/><circle cx="25" cy="15" r="2"/><circle cx="23" cy="25" r="2"/><path d="m17 17 6-2m-7 4 6 5m3-7-1 6"/></g>
<text x="96" y="677" fill="#72D5A4" font-size="22" font-weight="650" text-anchor="middle">Model API</text>
<path d="M181 649h33m-6-6 6 6-6 6" stroke="#72D5A4" stroke-width="2.1" stroke-linecap="round" stroke-linejoin="round"/>
<rect x="232" y="595" width="142" height="107" rx="15" fill="#152236" stroke="#2D614D" stroke-width="1"/>
<g transform="translate(290 605) scale(0.675)" stroke="#72D5A4" stroke-width="2.1" stroke-linecap="round" stroke-linejoin="round"><rect x="8" y="8" width="24" height="24" rx="6"/><path d="M14 2v6m12-6v6M14 32v6m12-6v6M2 14h6m-6 12h6m24-12h6m-6 12h6"/><circle cx="15" cy="17" r="2"/><circle cx="25" cy="15" r="2"/><circle cx="23" cy="25" r="2"/><path d="m17 17 6-2m-7 4 6 5m3-7-1 6"/></g>
<text x="303" y="660" fill="#72D5A4" font-size="24" font-weight="650" text-anchor="middle">model</text>
<text x="303" y="687" fill="#A6B7CE" font-size="18" font-weight="500" text-anchor="middle">HTTPS</text>
<rect x="20" y="742" width="360" height="57" rx="14" fill="#152236" stroke="#2C3E57" stroke-width="1"/>
<g transform="translate(31 752) scale(0.775)" stroke="#F2C064" stroke-width="2.1" stroke-linecap="round" stroke-linejoin="round"><path d="M12 8H6v24h6m16-24h6v24h-6"/><path d="m22 4-9 18h9l-4 14 11-20h-9Z"/></g>
<text x="73" y="774" fill="#EDF4FF" font-size="20" font-weight="650" text-anchor="start">TSLink</text>
<text x="365" y="765" fill="#A6B7CE" font-size="17" font-weight="400" text-anchor="end">Phone · laptop · agent</text>
<text x="365" y="788" fill="#A6B7CE" font-size="15.5" font-weight="400" text-anchor="end">Access follows tailnet policy.</text>
</g>
</svg>
